<svg id="Layer_1" data-name="Layer 1" xmlns="http://www.w3.org/2000/svg" xmlns:xlink="http://www.w3.org/1999/xlink" viewBox="0 0 2559.65 238.64"><defs><style>.cls-1{fill:none;}.cls-2{clip-path:url(#clip-path);}.cls-3{fill:#fdfdfd;}.cls-4{fill:#707070;}.cls-5{fill:#cbcaca;}.cls-6{fill:#e9e9e9;}.cls-7{fill:#f4f4f4;}.cls-8{fill:#f7f6f6;}.cls-9{fill:#efefef;}.cls-10{fill:#ababab;}.cls-11{fill:#bcbcbc;}.cls-12{fill:#dbdbdb;}.cls-13{fill:#959594;}.cls-14{fill:#ddd;}.cls-15{fill:#d4d3d3;}.cls-16{fill:#d2d2d2;}.cls-17{fill:#e3e2e2;}.cls-18{fill:#5a5a5a;}.cls-19{fill:#605f5f;}.cls-20{fill:#b0b0b0;}.cls-21{fill:#acacac;}.cls-22{fill:#747474;}.cls-23{fill:#656564;}.cls-24{fill:#777;}.cls-25{fill:#787878;}.cls-26{fill:#9c9c9c;}.cls-27{fill:#545454;}.cls-28{fill:#848585;}.cls-29{fill:#9f9f9f;}.cls-30{fill:#919191;}.cls-31{fill:#818282;}.cls-32{fill:#979797;}.cls-33{fill:#cac9c9;}.cls-34{fill:#828282;}.cls-35{fill:#6a6a6a;}.cls-36{fill:#2a2a2a;}.cls-37{fill:#131313;}.cls-38{fill:#202020;}.cls-39{fill:#2b2b2b;}.cls-40{fill:#373737;}.cls-41{fill:#353435;}.cls-42{fill:#3e3e3e;}.cls-43{fill:#b8b8b8;}.cls-44{fill:#868787;}.cls-45{fill:#c1c1c1;}.cls-46{fill:#6e6e6e;}.cls-47{fill:#505050;}.cls-48{fill:#585858;}.cls-49{fill:#464646;}.cls-50{fill:#3d3d3d;}.cls-51{fill:#4a494a;}.cls-52{fill:#020202;}.cls-53{fill:#070808;}.cls-54{fill:#121211;}.cls-55{fill:#060707;}.cls-56{fill:#111;}.cls-57{clip-path:url(#clip-path-2);}</style><clipPath id="clip-path" transform="translate(-1219.06 -1582.48)"><rect class="cls-1" x="1101.59" y="1503.88" width="1173.99" height="996.2"/></clipPath><clipPath id="clip-path-2" transform="translate(-1219.06 -1582.48)"><rect class="cls-1" x="2725.01" y="1503.88" width="1173.99" height="996.2"/></clipPath></defs><g class="cls-2"><path class="cls-3" d="M3602.56,1762.51a199.09,199.09,0,0,1-28,27.71,132.36,132.36,0,0,1-39.32,22.13c-12.12,4.42-24.72,7.51-38,7.56-658.7,2.46-1317.4.29-1976.11.91-10.55,0-21.32.13-31.64-1.44a141.48,141.48,0,0,1-76.68-38.3c-17.94-17.26-35.62-34.79-53.39-52.22a11.82,11.82,0,0,1-1.27-1.82,2.61,2.61,0,0,1,2.22-.72c6.49,3.7,10.71,9.94,16.36,14.59,12.73,12.89,25.63,25.61,38.39,38.48,2.1,2.12,4.67,3.6,7,5.5,17.14,14.34,36.47,24.42,58.29,29.23,7.38,1.63,14.87,3,22.59,3q968.72-.11,1937.43-.07c18.86.05,37.72,0,56.57.07,3.94,0,7.7-.83,11.51-1.37,21.72-2.83,41.12-11.29,58.68-24.21,4.45-2.38,8.05-5.87,11.73-9.24,6.23-4.44,10.92-10.5,16.48-15.64,1.63-1.5,3-3.3,5-4.38A2.53,2.53,0,0,1,3602.56,1762.51Z" transform="translate(-1219.06 -1582.48)"/><path class="cls-4" d="M1475.42,1804.12a147.14,147.14,0,0,0,37.54,4.75q599.09-.11,1198.19-.16,385.71,0,771.43.21a182.2,182.2,0,0,0,23.93-1.51c2.15-.76,4.34-.5,6.53-.25a1.32,1.32,0,0,1,.28,1.71c-2.47,1.79-5.53,1.17-8.23,2.06-3.87.68-7.89-.12-11.69,1.25-14.92,1-29.85.1-44.77.28-6.84-.24-13.7.42-20.53-.44-3.83-1.18-7.77-.66-11.65-.66q-786.07,0-1572.15,0-148.27,0-296.55,0c-3.14,0-6.32-.38-9.39.65a192.62,192.62,0,0,1-27.6.17c-6.69-1.9-13.75.07-20.44-1.9a20.13,20.13,0,0,1-4.7-.55c-2.95-.86-5.95-1.46-8.94-2.15-2-.46-4.46-.57-4.77-3.46A3.25,3.25,0,0,1,1475.42,1804.12Z" transform="translate(-1219.06 -1582.48)"/><path class="cls-5" d="M1360.26,1727.12l-2.19-.07q-15.67-14.49-30.2-30.12a14.35,14.35,0,0,1-4.42-4.49h0c-11.43-10.14-21.69-21.46-32.64-32.08-1.7-2-3.93-3.46-5.26-5.76-1.24-2.56-3.56-4.19-5.32-6.3-1.24-1.49-3.39-3.26-1.19-5.1,1.85-1.55,4.39-3.06,7-.86,1.67,1.43,3,3.2,5,4.3,11.27,9.94,22.49,19.93,32.4,31.27-4.46,1.46-5.8-2.89-8.57-4.58a123.85,123.85,0,0,0-12.48-12.51c-1.83-2.4-4.5-3.85-6.66-5.87-1-1-2.42-2.36-3.78-.78-1.07,1.26.29,2.38,1.15,3.29,2,2.15,4.19,4.2,6.3,6.29,3.67,3.83,7.46,7.54,11.24,11.27s7.42,7.47,11.17,11.17,7.37,7.42,11.08,11.11c1.87,2,3.79,3.87,5.74,5.75q4.42,4.51,9,8.92c4.24,4.69,9.31,8.59,13.06,13.76A1.35,1.35,0,0,1,1360.26,1727.12Z" transform="translate(-1219.06 -1582.48)"/><path class="cls-6" d="M3725.54,1642.18q-23,22.69-45.94,45.36c-2.5,2.47-5.15,4.77-7.73,7.15-1,.29-1.38-.32-1.61-1.14a4.35,4.35,0,0,1,1.15-2.83c4.36-4.57,8.93-8.93,13.31-13.47,3.75-3.42,6.94-7.43,11.07-10.45,4.66-3.51,8.36-8,12.35-12.19,4-3.57,8-7.08,11.06-11.53.72-1.06,1.49-2.39.29-3.49-1-.92-2,0-2.95.59-1.35.88-2.61,2.27-4.41.87a96.57,96.57,0,0,1,13.44-13.38,22,22,0,0,0,4.94-4.38c2-2.24,4-2.35,6.12-.25,2.32,2.25,2.24,4.22-.09,6.56-2.83,2.85-6.16,5.28-8.21,8.86C3727.54,1639.81,3726.34,1640.85,3725.54,1642.18Z" transform="translate(-1219.06 -1582.48)"/><path class="cls-7" d="M1286.57,1654.47l4.48,5.59c-.37.48-.75.49-1.13,0-9.66-9.48-19.28-19-29-28.42-7.05-6.83-14.26-13.5-21.34-20.29-1.44-1.37-3.28-2.56-3.3-4.92a36.2,36.2,0,0,1-7.81-7.82h0c-1.72-2.85-.46-5,1.83-6.63,3.55-2.6,5.71.55,8.22,2.16,3.63,3.82,8.26,6.63,11.17,11.18-2.09,1.57-3.32-.33-4.76-1.23-1.2-.74-2.34-1.14-3.45,0-1.27,1.31-1,2.67.08,3.92,1.64,2,3.57,3.66,5.37,5.48,3.68,3.83,7.47,7.54,11.25,11.26,4.41,4.54,8.92,9,13.42,13.42C1276.75,1643.48,1281.66,1649,1286.57,1654.47Z" transform="translate(-1219.06 -1582.48)"/><path class="cls-8" d="M3739,1614.27c6-7.88,14.45-13.09,21.22-20.11,3-1.5,4.33.69,5.69,2.57,1.79,2.47.1,4.41-1.22,6.36l-14.52,13.41c-2.37-3-4.57-6.57-8.72-2A1.69,1.69,0,0,1,3739,1614.27Z" transform="translate(-1219.06 -1582.48)"/><path class="cls-9" d="M3739,1614.27a9.23,9.23,0,0,0,2.51-1c6-4.6,6.52-4.4,8.66,3.2v1.11a13.24,13.24,0,0,0-4.49,4.47,145.49,145.49,0,0,0-16.74,16.75c-.37.44-.74.46-1.12,0,1-4.31,4.94-6.16,7.56-9.11,1.77-2,3.06-3.38.5-5.84-2.34-2.25-3.71-1.23-5.42.55-1.36,1.42-2.53,3.24-4.87,3.24C3729.11,1622.27,3734.79,1619,3739,1614.27Z" transform="translate(-1219.06 -1582.48)"/><path class="cls-3" d="M3764.67,1603.09c1.81-4.62.51-7.69-4.47-8.93,3.07-4.36,6.25-8.38,11.25-11,3.4-1.81,4.2.56,5.87,1.92s1.86,2.66.34,4.62A76.07,76.07,0,0,1,3764.67,1603.09Z" transform="translate(-1219.06 -1582.48)"/><path class="cls-10" d="M1315.61,1672.36c2.8,1.6,4.29,5,7.85,5.56a177.5,177.5,0,0,1,16.88,16.71,2.53,2.53,0,0,1-1.35.84,3.42,3.42,0,0,1-2.93-1.06,22.43,22.43,0,0,0-7.34-6.53c-2.24-1.1-5.21,1-7.56-1a72.45,72.45,0,0,1-11.16-11.19c-.84-1.19.18-2.77.69-2.31C1313.11,1675.65,1313.89,1672.05,1315.61,1672.36Z" transform="translate(-1219.06 -1582.48)"/><path class="cls-11" d="M3685.4,1678a111.83,111.83,0,0,1-13.4,13.43c-3.85-3-6.8-1.76-9.63,1.7-1.16,1.4-2.74,3.21-5.08,1.53a73.67,73.67,0,0,1,11.26-11.14,8.64,8.64,0,0,0,3.89-4.12,20.08,20.08,0,0,1,4.94-4.66C3681.52,1672.21,3684.26,1673.13,3685.4,1678Z" transform="translate(-1219.06 -1582.48)"/><path class="cls-10" d="M3627.28,1723.75c6.95-8.31,15.17-15.31,23.28-22.42a12.37,12.37,0,0,0,2.66-1.86c4.85-4.45,4.86-4.44,10.32-.31a29.46,29.46,0,0,1-12.61,12.7c-3.24-3.14-6.06-2-8.87.74-1.71,1.64-3.4,3.31-5.09,5-2.79,2.2-4.58,5.66-8.28,6.75A2.27,2.27,0,0,1,3627.28,1723.75Z" transform="translate(-1219.06 -1582.48)"/><path class="cls-12" d="M1270.92,1638.85a96.56,96.56,0,0,1-13.42-13.4c2.12-5.54,5-6.46,8.9-2.82a29.09,29.09,0,0,0,4.51,3.93,64.58,64.58,0,0,1,11.19,11.16c-2.14,1.46-3.42-.25-4.83-1.34C1272.48,1632.7,1271.79,1633,1270.92,1638.85Z" transform="translate(-1219.06 -1582.48)"/><path class="cls-13" d="M1346.85,1712.65a50,50,0,0,1-8.93-8.94c-1.16-2-.07-2.72,1.7-2.83a14.94,14.94,0,0,0,3.63-1.16c1.16-.16,1.89.58,2.64,1.27,1.79,1.72,3.32,3.77,5.71,4.78a359.31,359.31,0,0,1,31.11,30.22,2.17,2.17,0,0,1-1.37.64,4.88,4.88,0,0,1-2.77-1.28c-3.64-3.81-7.68-7.2-11.47-10.86-1.67-2.88-4.9-4.21-6.83-6.84-1.38-2-3.63-3.21-5.21-5C1352.14,1709.41,1349.6,1709.7,1346.85,1712.65Z" transform="translate(-1219.06 -1582.48)"/><path class="cls-14" d="M3712.13,1641.05c1.9.09,3-1.28,4.15-2.41s2.3-2.6,4.17-1,2,3.13.56,5.26a62.27,62.27,0,0,1-12.21,12.64,25,25,0,0,1-4.8-5.62c1.18-3.65,4.43-5.43,7-7.81Z" transform="translate(-1219.06 -1582.48)"/><path class="cls-15" d="M3704.33,1650c2.8.81,3.82,3,4.47,5.59-3.79,4.39-7.59,8.78-12.29,12.27-2-5.21-5.94-1.48-9-2-.8-2.16,1.31-2.51,2.23-3.6a12.76,12.76,0,0,1,4.49-4.45,23,23,0,0,0,4.25-3.56,12.86,12.86,0,0,0,4-3.74C3703,1650,3703.55,1649.51,3704.33,1650Z" transform="translate(-1219.06 -1582.48)"/><path class="cls-16" d="M1270.92,1638.85c-1.74-2.6-.94-4.94,1.31-6.49s3.46,1,4.92,2.13,2.58,3.24,4.95,3.23a43.1,43.1,0,0,1,9,8.93,3.45,3.45,0,0,1-2.93-1.28c-2.76-3.83-5.81-3.26-9.13-.8,1.77,4,6.75,5.34,7.57,9.9A126.87,126.87,0,0,1,1270.92,1638.85Z" transform="translate(-1219.06 -1582.48)"/><path class="cls-3" d="M1238.52,1594.16c-7.42-3.06-8.84-2.43-10,4.47a34.49,34.49,0,0,1-7.78-7.71c-1.65-2.18-2.64-3.89,0-6.52s4.72-2.29,6.91-.13C1231.1,1587.72,1235.71,1590,1238.52,1594.16Z" transform="translate(-1219.06 -1582.48)"/><path class="cls-17" d="M1270.91,1626.56a3.91,3.91,0,0,1-3.28-1.67c-3.7-5.08-7-3.54-10.13.56a66.38,66.38,0,0,1-11.17-11.18c2.28-5.21,4.83-5.9,8.85-2.5,3.09,2.61,5.69,5.76,9,8.08A23.79,23.79,0,0,1,1270.91,1626.56Z" transform="translate(-1219.06 -1582.48)"/><path class="cls-6" d="M1264.21,1619.85c-4-.58-6.41-4-8.65-6.48-4.21-4.66-6.41-1.67-9.23.9-1.9-1.72-3.79-3.45-5.71-5.16-2.11-1.87-2.69-3.64-.47-6.06s3.91-2.12,5.82.2a4.7,4.7,0,0,0,3.72,2.08C1254,1610.74,1260.45,1613.94,1264.21,1619.85Z" transform="translate(-1219.06 -1582.48)"/><path class="cls-10" d="M3602.56,1762.51l-2,.49a2,2,0,0,1-.81-1.27,3.63,3.63,0,0,1,.28-1.52,45.75,45.75,0,0,1,8.68-8.57c3.67-3.22,6.26-7.45,10-10.63,3-2.72,5.56-5.94,8.92-8.28,3.61-1.79,5-6.62,9.7-7a2.46,2.46,0,0,1,.6,1.41,19.91,19.91,0,0,1-7.58,7.63Z" transform="translate(-1219.06 -1582.48)"/><path class="cls-18" d="M3570.1,1780.19l.82-.81c3.11-1.83,4.29-6.06,8.36-6.7,1.68,2.24.38,3.92-1.05,5.58,1.27-1,2.5-2.09,4.28-1.15,1,2.79-1.43,3.64-2.9,5-3.32,2.88-6.19,6.33-10.35,8.15-2.88-.22-6.72,3.83-8.41-1.85C3562.73,1784.32,3567.25,1783.2,3570.1,1780.19Z" transform="translate(-1219.06 -1582.48)"/><path class="cls-15" d="M3637.45,1727.2l-.2-1.25c-.61-1.85.81-2.82,1.72-4,4.05-3.34,6.73-8.25,11.85-10.38a99.09,99.09,0,0,0,12.24-12.34c1.76-3,2.92-6.84,7.75-5.67l1.06,1.14c-11.16,10.38-22,21-32.37,32.26A1.31,1.31,0,0,1,3637.45,1727.2Z" transform="translate(-1219.06 -1582.48)"/><path class="cls-19" d="M1395.29,1749.27a3.11,3.11,0,0,1,2,2c1.18,1.79,3.3,2.75,4.22,4.77,1.77,3.1,3.62,6.23-2,7.34-5-2.79-8.63-7-11.91-11.54,2.51-2-1.25-5.5,1.72-7.42C1392.22,1745,1393.13,1747.87,1395.29,1749.27Z" transform="translate(-1219.06 -1582.48)"/><path class="cls-20" d="M3670.81,1693.55c-3.69.39-4.79,4.3-7.76,5.67-.29-2.37-5.26,3.41-4-2.35.29-1.29-1.61-.29-2.39.29-2,1.46-3.07,4.25-6.11,4.17a30.08,30.08,0,0,1,6.73-6.69c5.12-.87,6.59-6.87,11.88-7.93-.85,2.44,1.42,3.28,2.83,4.7Z" transform="translate(-1219.06 -1582.48)"/><path class="cls-3" d="M1289.92,1660.08l1.13,0q16.83,15.57,32.41,32.39c-.85-.31-1.93-.37-2.51-1Q1305.38,1675.86,1289.92,1660.08Z" transform="translate(-1219.06 -1582.48)"/><path class="cls-21" d="M1475.42,1804.12l-3.33,0a1.5,1.5,0,0,1-1.29.6c-2-.37-3.83-1.11-5.74-1.65a13.35,13.35,0,0,1-1.38-.5c-1.56-.65-3.21-1.09-4.75-1.81-.46-.2-.89-.42-1.33-.66-2.62-1.43-5.33-2.67-8-4a24.57,24.57,0,0,0-4.67-2,32.89,32.89,0,0,1-5.32-2.55,6.47,6.47,0,0,1-1.93-2.26,3.13,3.13,0,0,1-.35-2.86c4.7,1.38,8.39,4.62,12.59,6.92C1458.08,1797.75,1467,1800.37,1475.42,1804.12Z" transform="translate(-1219.06 -1582.48)"/><path class="cls-19" d="M1405.24,1758.23c7.8,6.72,15.21,13.85,22.38,21.24a2.59,2.59,0,0,1-1.35.92c-2.6.34-4-1.33-5.42-3.13-4.57-4.77-9.78-8.88-14.27-13.76-1.24-1.61-3.41-2.73-2.81-5.31A1.26,1.26,0,0,1,1405.24,1758.23Z" transform="translate(-1219.06 -1582.48)"/><path class="cls-22" d="M3579.21,1772.9c-3.25,1.54-4.54,5.59-8.29,6.48,2.66-5.07,7.53-8.07,11.38-12,4.26-4.37,9-8.32,13.48-12.45a1.13,1.13,0,0,1,1.41-.09c.66,2.57-1.54,3.62-2.74,5.2-2,1.87-3.86,3.87-5.86,5.75C3585.06,1767.62,3583,1771.41,3579.21,1772.9Z" transform="translate(-1219.06 -1582.48)"/><path class="cls-23" d="M3570.1,1780.19c-2.13,3.62-6.27,5.11-8.79,8.31-2.31,3.47-6.45,4.24-9.57,6.51a5.4,5.4,0,0,1-3.86,1,2.52,2.52,0,0,1-1.32-.92Z" transform="translate(-1219.06 -1582.48)"/><path class="cls-6" d="M3689.78,1662.26l-2.19,3.39c-1.68,5-6.61,6.81-10.11,10a12.92,12.92,0,0,0-4.49,4.39,1.35,1.35,0,0,1-2.13.16C3676.75,1673.8,3682.12,1666.82,3689.78,1662.26Z" transform="translate(-1219.06 -1582.48)"/><path class="cls-24" d="M3516.69,1805.34c6.25-.27,11.52-4.25,17.72-4.73a1.45,1.45,0,0,1,.18,1.68c-5.25,4-11.07,5.73-17.65,4.62A1.06,1.06,0,0,1,3516.69,1805.34Z" transform="translate(-1219.06 -1582.48)"/><path class="cls-25" d="M1395.29,1749.27c-2.74-.39-3.57-3.41-5.93-4.32-3.52-2.12-7.11-4.18-7.83-8.78l1.18-.18C1387.12,1740.22,1392.39,1743.62,1395.29,1749.27Z" transform="translate(-1219.06 -1582.48)"/><path class="cls-26" d="M3627.28,1723.75c.37,0,.73,0,1.1,0,.22,3.68-3.25,4.83-4.91,7.22-1.93,1.61-3.31,4-6,4.48a2.17,2.17,0,0,1-1.37-.6A66.87,66.87,0,0,1,3627.28,1723.75Z" transform="translate(-1219.06 -1582.48)"/><path class="cls-27" d="M1426.19,1779.69l1.43-.22,9.7,6.9,1.09,2.17C1433.48,1788.56,1428,1784.57,1426.19,1779.69Z" transform="translate(-1219.06 -1582.48)"/><path class="cls-18" d="M3534.45,1801.86c0-.42,0-.83,0-1.25l12.15-5.5,1.43.27c0,3.24-2.85,3.33-4.82,4.27s-4.22,2-6.41,2.89A2.39,2.39,0,0,1,3534.45,1801.86Z" transform="translate(-1219.06 -1582.48)"/><path class="cls-6" d="M3704.33,1650l-1.12,1.11a1.48,1.48,0,0,1-2.23,0c3-3.36,5.42-7.41,10-9Z" transform="translate(-1219.06 -1582.48)"/><path class="cls-3" d="M3637.45,1727.2l2.05-.25c-2.54,3.22-4.59,7-9.15,7.86Z" transform="translate(-1219.06 -1582.48)"/><path class="cls-28" d="M3601.39,1749.37a35.1,35.1,0,0,1,7.94-7.78.86.86,0,0,1,1.32-.09,3.05,3.05,0,0,1-.77,2.93c-2.22,2.06-3.81,5-7.15,5.63A2.18,2.18,0,0,1,3601.39,1749.37Z" transform="translate(-1219.06 -1582.48)"/><path class="cls-3" d="M1228.47,1598.63a32.23,32.23,0,0,1,7.81,7.82A11.78,11.78,0,0,1,1228.47,1598.63Z" transform="translate(-1219.06 -1582.48)"/><path class="cls-20" d="M3516.68,1805.34l0,1.13c-.8,1.48-1.83,2.19-3.43,1l-6.77-.09C3509.82,1806.32,3513.12,1805.18,3516.68,1805.34Z" transform="translate(-1219.06 -1582.48)"/><path class="cls-29" d="M1345.78,1701.43l-2.23-1.16c-2.31-1.18-4.83-2.2-4.49-5.53l1.28-.11a29.55,29.55,0,0,1,6.75,6.69A.79.79,0,0,1,1345.78,1701.43Z" transform="translate(-1219.06 -1582.48)"/><path class="cls-30" d="M3610.49,1741.67l-1.16-.08a23,23,0,0,1,6.73-6.69l1.17.06c.5,1.12-.1,2-.69,2.81C3614.67,1739.3,3613.64,1742.13,3610.49,1741.67Z" transform="translate(-1219.06 -1582.48)"/><path class="cls-22" d="M1405.24,1758.23l-1.37.23c-2.09.57-2.35-1.41-3.33-2.39-.65-1.88-3.09-2.57-3.21-4.8C1400.94,1752.48,1403.12,1755.32,1405.24,1758.23Z" transform="translate(-1219.06 -1582.48)"/><path class="cls-31" d="M3601.39,1749.37l1.32.1c.32,3.17-2.23,4.3-4.18,5.86a1.58,1.58,0,0,1-1.44-.23l-1.31-.18A17.49,17.49,0,0,1,3601.39,1749.37Z" transform="translate(-1219.06 -1582.48)"/><path class="cls-32" d="M1345.78,1701.43l1.31-.11a14.84,14.84,0,0,1,4.51,4.45C1348.56,1705.79,1347.26,1703.49,1345.78,1701.43Z" transform="translate(-1219.06 -1582.48)"/><path class="cls-14" d="M3701,1651.12h2.23c-.95,1.82-2.19,3.26-4.43,3.39-.36-.25-.49-.5-.38-.76s.23-.39.34-.39Z" transform="translate(-1219.06 -1582.48)"/><path class="cls-3" d="M3745.66,1622.08a4.72,4.72,0,0,1,4.49-4.47A11.23,11.23,0,0,1,3745.66,1622.08Z" transform="translate(-1219.06 -1582.48)"/><path class="cls-6" d="M3698.74,1653.35c0,.38,0,.76,0,1.15-1.05,1.73-2.22,3.27-4.51,3.31A11.89,11.89,0,0,1,3698.74,1653.35Z" transform="translate(-1219.06 -1582.48)"/><path class="cls-3" d="M1323.45,1692.44a11,11,0,0,1,4.42,4.49A4.63,4.63,0,0,1,1323.45,1692.44Z" transform="translate(-1219.06 -1582.48)"/><path class="cls-33" d="M3670.86,1680.22l2.13-.16c-.85,2-2.13,3.35-4.44,3.44Z" transform="translate(-1219.06 -1582.48)"/><path class="cls-3" d="M3727.8,1638.83h1.12a6.77,6.77,0,0,1-3.38,3.35A3.52,3.52,0,0,1,3727.8,1638.83Z" transform="translate(-1219.06 -1582.48)"/><path class="cls-27" d="M3440.67,1818.75c-15.63.1-31.26.3-46.89.3q-939.15,0-1878.28.07c-33.84,0-64.14-9-90.74-30-1.89-1.49-3.57-3.24-5.35-4.86a1.13,1.13,0,0,1,0-1.43c3.19-.39,4.94,2.12,7,3.74q4.55,3.6,9.4,6.72a101.12,101.12,0,0,0,20.08,11.16,130.13,130.13,0,0,0,18.17,6.6,266.15,266.15,0,0,0,30.35,5c16.07-.28,32.12,0,48.18,0q41.88.06,83.75,0,655.44-.75,1310.88-.24,176.49,0,353,0c24.76,0,49.52.16,74.28.19,19.31.15,38.63-.54,57.94,0,2.58.07,5.22-.37,7.67.88A1.35,1.35,0,0,1,3440.67,1818.75Z" transform="translate(-1219.06 -1582.48)"/><path class="cls-23" d="M3568.15,1792.18c-17.17,13.39-36.42,21.87-58.14,24.48a1.31,1.31,0,0,1-.07-1.61c4-2.42,8.8-2.45,13.1-4a104.4,104.4,0,0,0,18.54-6.69c4.59-2.09,9-4.5,13.44-6.91,4.6-1.87,8-6.18,13.24-6.71A1.22,1.22,0,0,1,3568.15,1792.18Z" transform="translate(-1219.06 -1582.48)"/><path class="cls-34" d="M1361.37,1717.08c1.73,2.74,5.53,3.41,6.71,6.7-2.43,7.15,4,9.63,7.27,13.81a4.57,4.57,0,0,1,1.24,2.88,2.17,2.17,0,0,1-.74,1.37l-15.59-14.72.06-1.18c-.54-.72-1.08-1.45-1.63-2.16-1.07-1.37-3.55-2.39-2.78-4.25S1358.94,1716.56,1361.37,1717.08Z" transform="translate(-1219.06 -1582.48)"/><path class="cls-25" d="M1375.85,1741.84l.16-1.37c6,1.63,9,6.57,12.21,11.2a69.89,69.89,0,0,0,11.18,11.17c3.33,1,4.93,4.16,7.47,6.16,2.84,2.92,5.75,5.77,8.63,8.65,1.39,1.72,3.49,2.92,4,5.28,0,.44-.09.87-.14,1.31-2-.35-3.08-2-4.36-3.24Q1395.42,1761.46,1375.85,1741.84Z" transform="translate(-1219.06 -1582.48)"/><path class="cls-18" d="M3510,1815.45c0,.4,0,.81,0,1.21a21.71,21.71,0,0,1-8.66,1.79c-20.22.83-40.45.77-60.68.3,0-.36,0-.72,0-1.07,4.93-3.3,10.47-1,15.68-1.7,12.36.11,24.73-.38,37.09,0,3.5.38,6.81-.92,10.25-1.13C3505.8,1814.73,3508,1813.79,3510,1815.45Z" transform="translate(-1219.06 -1582.48)"/><path class="cls-31" d="M3579.08,1781.79l3.5-4.44c1.34-3.69,4.82-5.56,7.14-8.42,2-1.89,3.9-3.86,5.83-5.82,1.42-1,2.61-2.82,4.75-1.45.1.44.19.89.28,1.34-7,6.83-13.2,14.47-21.24,20.18A.85.85,0,0,1,3579.08,1781.79Z" transform="translate(-1219.06 -1582.48)"/><path class="cls-35" d="M3579.08,1781.79c.08.46.17.92.26,1.39-3.25,3.6-6.75,6.88-11.19,9l-.18-1.5c-.18-.91.08-1.38,1.09-1.12Z" transform="translate(-1219.06 -1582.48)"/><path class="cls-36" d="M1537.72,1810.73c1.92-1.07,4-.62,6-.62q939.38,0,1878.76,0c2,0,4.11-.51,6,.66-3.17,2.67-7,1.8-10.63,1.86-17.74.3-35.49-.35-53.24-.17q-661.32.81-1322.65.24-144.66,0-289.33-.07c-36.11-.08-72.22-.07-108.32-.17-16.06,0-32.13,0-48.19,0-18.52-.15-37.05.23-55.58-.19A4.11,4.11,0,0,1,1537.72,1810.73Z" transform="translate(-1219.06 -1582.48)"/><path class="cls-37" d="M3364.66,1811l63.85-.26,20,.06c4.68,1.57,9.72-.24,14.43,1.7-5.28,2.76-11,1.39-16.47,1.63-5.71.24-11.43.06-15.07,0,11.44.15,25-.17,38.48,0,.9,0,1.59.76,2.55,2-5.65,1.71-11-.11-16.1,1.22l-15.62.23-65.92-.22c-.05-1.27.8-1.51,1.79-1.51,4.86,0,9.73-.1,13.49,0-9.21-.66-19.49.7-29.78.55-13.38-.19-26.77,0-40.15,0-1.3,0-2.61.07-3.9,0-1.75-.16-4.26.34-4.2-2.34,0-2.21,2.3-1.92,3.92-2.06.56,0,1.12,0,1.67,0,22.74-.06,45.47-.09,68.2.71.74-.18-.31-1.3.09-.67.11.18,0,.3-.45.33-6.12.36-12.23.09-18.35.14C3366,1812.51,3364.76,1812.69,3364.66,1811Z" transform="translate(-1219.06 -1582.48)"/><path class="cls-36" d="M3456.3,1817.45c4.59-2.45,9.74.12,14.42-2.44h-47.15v-1.63h38.3c-4.3-2.65-9.2.21-13.38-2.55l45.74,0c1-.69,2.14-.46,3.24-.36,1.2.62,3.47.17,3.33,2.13s-2.08,1.68-3.55,1.67-3.16-.06-4.58,0c1.7.26,4-.74,5.07,1.77-.75,1.57-2.44.57-3.43,1.37Z" transform="translate(-1219.06 -1582.48)"/><path class="cls-38" d="M1537.72,1810.73l2.5.27c-2.92,3.32-6.82.51-10.14,1.78,12.17-.94,24.31-.88,36.45-.73,2.23,0,5.7-1,5.1,3.46-5.78,1.89-11.74,1.06-17.56.72s-11.8-.18-16.2-.28c3.27-.17,8,0,12.81,0,1,0,1.82.25,1.81,1.5l-49.2-.07c-1-.76-2.71.22-3.42-1.66,3.1-2.92,7-.73,10-1.53-3.17.18-6.81-.12-10.45.17-1.45.12-3.46.05-3.62-1.66-.2-2.06,2-1.56,3.32-2,.53-.16,1.07-.28,1.62-.39,3.15.18,6.33-.48,9.43.44Z" transform="translate(-1219.06 -1582.48)"/><path class="cls-39" d="M1500,1811c-.78,1.16-2.26.88-3.3,2.28H1516l0,1.52c-4.79,1.29-9.82.09-14.77.74-.21,1.51,1.82.8,2.06,1.88-10.15-1.24-20.36-2.13-30.14-5.38,3.28-4.27,7.7-4.42,12.43-3.44l4.36.24C1493,1810.77,1496.76,1809.77,1500,1811Z" transform="translate(-1219.06 -1582.48)"/><path class="cls-40" d="M3494.3,1817.38l2.57-1.69c-3.33-1-6.73.45-10.55-1.38,4.86-2.17,9.26-.61,13.45-1.39,0-1.44-1.89-.88-2.19-2,2.39-1.68,5.48.56,7.82-1.42,2.43-1.6,5.17-.68,7.76-1,4.26-1.31,7.79-.46,10.26,3.5a46.71,46.71,0,0,1-13.45,3.38Z" transform="translate(-1219.06 -1582.48)"/><path class="cls-41" d="M1485.58,1808.55c-4.48-.09-8.27,2.37-12.43,3.44-6.22-1.58-12.39-3.28-17.94-6.65.31-2.45-3-7.14,3.53-5.75l0-.06c1.37,2,3.73,1.58,5.62,2.31l0,0c1.88,2,4.61,1.43,6.86,2.29a1.69,1.69,0,0,1,1,0C1476,1807.3,1481.41,1806.07,1485.58,1808.55Z" transform="translate(-1219.06 -1582.48)"/><path class="cls-42" d="M3523.42,1812.07c-3.39-1.25-6.47-3.41-10.26-3.5a4.81,4.81,0,0,0,.12-1.07l3.43-1c6.24-.29,12-2.3,17.74-4.6l2.29.05c2.46.09,4.78.39,5.54,3.32A59.09,59.09,0,0,1,3523.42,1812.07Z" transform="translate(-1219.06 -1582.48)"/><path class="cls-41" d="M1500,1811c-3.43-.38-7.21.86-10.08-2.16,6.62,1.83,13.56.34,20.19,2Z" transform="translate(-1219.06 -1582.48)"/><path class="cls-42" d="M3505.4,1809.52c-2.23,2.58-5.24.78-7.82,1.42l-3.36-.14C3497.79,1809.05,3501.71,1810.28,3505.4,1809.52Z" transform="translate(-1219.06 -1582.48)"/><path class="cls-43" d="M1315.61,1672.36c-1.1,1.57-1.89,3.59-4.52,1.92-.74-.47-1,.74-1.09,1.45a68.22,68.22,0,0,1-11.15-11.19,4.84,4.84,0,0,1,4.44-4.43C1307.74,1663.85,1312.1,1667.68,1315.61,1672.36Z" transform="translate(-1219.06 -1582.48)"/><path class="cls-44" d="M1361.37,1717.08c-1.66.66-2.61,2.58-4.81,2.25.49,3,3.93,3.75,3.76,6.61a105.7,105.7,0,0,1-13.47-13.29c3.19-5.76,3.18-5.75,8.14-1.52C1357.21,1713,1360.1,1714.18,1361.37,1717.08Z" transform="translate(-1219.06 -1582.48)"/><path class="cls-29" d="M1321.16,1686.92c7.28-2.62,11.83,1.2,15.67,6.67-1,1.86,3,3.2.56,5.17-1.87,1.52-3.26-1.27-5.05-.64A77.36,77.36,0,0,1,1321.16,1686.92Z" transform="translate(-1219.06 -1582.48)"/><path class="cls-45" d="M1303.29,1660.11a10.16,10.16,0,0,1-4.44,4.43c-2.7-2.52-5.36-5.07-8.1-7.53-1.56-1.4-1.76-2.85-.24-4.23,1.24-1.11,2.93-2.29,4.33-.5C1297.26,1655.36,1301.34,1656.58,1303.29,1660.11Z" transform="translate(-1219.06 -1582.48)"/><path class="cls-32" d="M1332.34,1698.12c1.58-4.36,3.1,1.41,4.74,0,1.34-1.51-2.8-2.87-.25-4.49a2.43,2.43,0,0,0,2.23,1.15l4.49,5.53c-1.32.66-1.13,4.57-4.16,1.77-.78-.71-1.29.78-1.47,1.67A20.07,20.07,0,0,1,1332.34,1698.12Z" transform="translate(-1219.06 -1582.48)"/><path class="cls-33" d="M3677.48,1675.67c2.83-3.88,6.49-6.93,10.11-10a6.62,6.62,0,0,0,2-.61c5.22-3.7,5.21-3.72,6.87,2.82L3685.4,1678C3683.29,1675.39,3680.91,1673.74,3677.48,1675.67Z" transform="translate(-1219.06 -1582.48)"/><path class="cls-30" d="M3622.77,1730.42l5.61-6.62,7.81-6.77c2.26,1.23,3,3.41,3.46,5.72l-2.4,3.2-8.94,7.79C3626,1733.36,3623.44,1733.49,3622.77,1730.42Z" transform="translate(-1219.06 -1582.48)"/><path class="cls-26" d="M3639.65,1722.75c-2.25-1.24-2.81-3.51-3.46-5.72,1.9-2.77,4.65-4.69,7-7,3.74-3.66,5.76-2.31,7.63,1.53Z" transform="translate(-1219.06 -1582.48)"/><path class="cls-46" d="M1388.22,1751.67l-12.21-11.2-1.2-2.2a7.86,7.86,0,0,1,4.55-3.44l2.17,1.34,7.83,8.78a1.15,1.15,0,0,0-.07,1.88C1392.05,1749.17,1390.4,1750.46,1388.22,1751.67Z" transform="translate(-1219.06 -1582.48)"/><path class="cls-25" d="M1379.36,1734.83c-1.07,4.06-1.07,4.06-4.55,3.44a64.42,64.42,0,0,0-5.73-5.13c-4-2.84-4-5.88-1-9.36C1371.84,1727.47,1376.31,1730.43,1379.36,1734.83Z" transform="translate(-1219.06 -1582.48)"/><path class="cls-22" d="M3598.19,1755l4.52-5.53,6.66-5.62a2.47,2.47,0,0,1,.52-.13c1.16,2.54.87,6.92-.56,8.93l-8.83,8C3595.3,1760.58,3596.25,1758,3598.19,1755Z" transform="translate(-1219.06 -1582.48)"/><path class="cls-31" d="M3609.33,1752.65c.49-1.28,1-2.55,1.67-4.32l-3.72,1.74c-1.42-3,4.35-3.16,2.09-6.22l1.12-2.18,5.57-4.54c2.86.2,1.46,3.64,3.44,4.5Z" transform="translate(-1219.06 -1582.48)"/><path class="cls-28" d="M3619.5,1741.63c-2.94-.78-2.94-.78-3.44-4.5l1.17-2.17,5.54-4.54,5.54,3.32Z" transform="translate(-1219.06 -1582.48)"/><path class="cls-46" d="M3598.19,1755c.75,1.9-1.28,4.93,2.31,5.68-.05.33-.11.66-.19,1-1.88-.05-2.82,1.67-4.35,2.29-.6.44.22,0-.45.29-1.7.65-3,4-5,1.83s1-3.33,2.07-4.8c.43-.58,1.1-1,1.15-1.79l3.36-4.38A8,8,0,0,1,3598.19,1755Z" transform="translate(-1219.06 -1582.48)"/><path class="cls-47" d="M3569.06,1789.56l-1.09,1.12c-4.09,2.63-7.79,5.86-12.31,7.81-2.5-.42-6.48.64-4.39-4.38a45.17,45.17,0,0,1,10-5.61c1.51,1.5,2.87,3.41,5.05.65C3567.12,1788.19,3568.29,1788.54,3569.06,1789.56Z" transform="translate(-1219.06 -1582.48)"/><path class="cls-23" d="M3590.39,1769.54a34.25,34.25,0,0,1-7.81,7.81c-3,.13-4.39,3-7.55,4.19.46-3.67,5.12-5,4.18-8.64a21.74,21.74,0,0,1,8.93-7.85C3590.61,1765.69,3587.91,1768.91,3590.39,1769.54Z" transform="translate(-1219.06 -1582.48)"/><path class="cls-48" d="M1406.11,1769.54a25.45,25.45,0,0,1-6.71-6.7c4.68-1.53,1.62-4.37,1.14-6.77l3.33,2.39,3.36,4.38C1411,1768,1411,1768,1406.11,1769.54Z" transform="translate(-1219.06 -1582.48)"/><path class="cls-49" d="M1419.55,1782.93a12,12,0,0,1-4.49-4.47c-.88-3.34,1.5-3,2.7-1.77,1.87,2,2.67,0,3.93-.36,1,1.73,2.32,3.15,4.5,3.36a34.05,34.05,0,0,0,12.22,8.85l1.54,2a4.22,4.22,0,0,1-1,2.5,3.81,3.81,0,0,1-1.13.78,9,9,0,0,1-2.73.31C1429.23,1791.39,1424.88,1786.49,1419.55,1782.93Z" transform="translate(-1219.06 -1582.48)"/><path class="cls-50" d="M1438.51,1793a2.57,2.57,0,0,1,1.44-2.47l5.25,2.35c1.21,1.41,3,1.61,4.6,2.3l8.94,4.41c-.93.62-4.23-.77-2.25,2.31,1.36,2.11-.94,2.28-1.28,3.44a69.18,69.18,0,0,1-20.07-11.22c.81-1.32,2.14-1.09,3.38-1.13Z" transform="translate(-1219.06 -1582.48)"/><path class="cls-50" d="M1471.12,1804.08c-2.5-.12-5.45,1.1-6.86-2.29Z" transform="translate(-1219.06 -1582.48)"/><path class="cls-50" d="M1464.31,1801.84c-2.23.1-4.61.57-5.62-2.3Z" transform="translate(-1219.06 -1582.48)"/><path class="cls-49" d="M1449.8,1795.18c-2,.21-3.76-.13-4.6-2.3A7.8,7.8,0,0,1,1449.8,1795.18Z" transform="translate(-1219.06 -1582.48)"/><path class="cls-27" d="M1421.69,1776.33c-2.4,1.85,1.69,2.94.33,4.9-2-.37-2.86-2.36-4.36-3.46-1-.74-2.31-1.68-2.6.69a43.74,43.74,0,0,1-9-8.92c3.12-1.78,2.36-4.2,1.12-6.7Z" transform="translate(-1219.06 -1582.48)"/><path class="cls-35" d="M3590.39,1769.54c-1.35-.17-2.58,1.23-3.9.53-.88-2.32,3.43-2.57,1.65-5a17.49,17.49,0,0,1,5.59-5.57c.84.19,2.2.06.61,1.4s-3.51,2.12-3.46,4.63c2.19.81,3.14-2,5.08-1.56A17.7,17.7,0,0,1,3590.39,1769.54Z" transform="translate(-1219.06 -1582.48)"/><path class="cls-51" d="M3551.27,1794.11c-.81,3.74,3.05,2.8,4.39,4.38a78.35,78.35,0,0,1-13.38,6.74c-1.59-1.54-4.41-1-5.54-3.32,2.69-4,8.45-2.72,11.25-6.53Z" transform="translate(-1219.06 -1582.48)"/><path class="cls-52" d="M3364.66,1811c5.39,2,11,.43,16.47,1,2.3.22,4.68-.54,6.91,1.42H3313V1815h82.89c-6.95,2.5-14.21,0-21.09,2.44q-107.79.11-215.57.22-756.45,0-1512.91-.07c-3.34,0-6.69-.09-10-.14-9.71-1.06-19.45-.15-29.16-.53-1.55-.06-3.85,1.21-4.47-1.65,3.56-2.59,7.65-1.12,11.5-1.52,12.16,1,24.35.21,36.52.45h.13c-9.07,0-18.13,0-27.2,0-2,0-4.08.4-6-.71-.52-3.57,2.3-1.89,3.5-2,7.64-.42,15.31.43,23-.51q115.05-.06,230.09-.13,740,0,1479.92.06C3357.59,1811,3361.13,1811,3364.66,1811Z" transform="translate(-1219.06 -1582.48)"/><path class="cls-53" d="M1602.76,1815.35c2.4,2.1,5.27.86,7.92,1.07,8.5.67,17.11-1.17,25.56,1.06l-83.75,0c-5.32-2.36-11,0-16.42-2.11h35.39a6,6,0,0,1,4.06-1.5c7.74-.12,15.48-.13,23.23,0A5,5,0,0,1,1602.76,1815.35Z" transform="translate(-1219.06 -1582.48)"/><path class="cls-54" d="M1602.76,1815.35l-31.3,0c-.54-3.1-3-2.17-4.85-2.18-11.83-.08-23.67-.05-35.5-.06a30.71,30.71,0,0,1-5.41-.32c4.72-1.91,9.89.64,14.52-1.77l55.81,0c0,.88-.41,1.44-1.24,1.43-6.41,0-12.83.44-16.41.1,4.19.23,11.18.1,18.2-.29,5.7-.33,11.42-.87,17.09.36a1.83,1.83,0,0,1,.25,2.7Z" transform="translate(-1219.06 -1582.48)"/><path class="cls-53" d="M1613.92,1813.11h-39c7-2.09,14.2.21,21.11-2.09h48c-6.71,2.17-13.61.35-20.4,1-2.14.2-4.51-.82-6.36,1.09A2.36,2.36,0,0,1,1613.92,1813.11Z" transform="translate(-1219.06 -1582.48)"/><path class="cls-51" d="M3535.48,1804.34c.72.2,1.63.45,1.46,1.32s-1.14.78-1.81.62c-.44-.11-1.1-.55-1.14-.89C3533.88,1804.36,3534.71,1804.33,3535.48,1804.34Z" transform="translate(-1219.06 -1582.48)"/><path class="cls-49" d="M1438.51,1793c1,.14,2.24-.34,2.75,1,.08.21-.5.94-.84,1-1.48.24-1.74-.86-1.9-2Z" transform="translate(-1219.06 -1582.48)"/><path class="cls-55" d="M1650.78,1813.11h90.84v2.21h-90.84A1.5,1.5,0,0,1,1650.78,1813.11Z" transform="translate(-1219.06 -1582.48)"/><path class="cls-56" d="M1650.78,1813.11v2.21h-36.86v-2.21l3.36,0Z" transform="translate(-1219.06 -1582.48)"/></g><g class="cls-57"><path class="cls-3" d="M3602.56,1762.51a199.09,199.09,0,0,1-28,27.71,132.36,132.36,0,0,1-39.32,22.13c-12.12,4.42-24.72,7.51-38,7.56-658.7,2.46-1317.4.29-1976.11.91-10.55,0-21.32.13-31.64-1.44a141.48,141.48,0,0,1-76.68-38.3c-17.94-17.26-35.62-34.79-53.39-52.22a11.82,11.82,0,0,1-1.27-1.82,2.61,2.61,0,0,1,2.22-.72c6.49,3.7,10.71,9.94,16.36,14.59,12.73,12.89,25.63,25.61,38.39,38.48,2.1,2.12,4.67,3.6,7,5.5,17.14,14.34,36.47,24.42,58.29,29.23,7.38,1.63,14.87,3,22.59,3q968.72-.11,1937.43-.07c18.86.05,37.72,0,56.57.07,3.94,0,7.7-.83,11.51-1.37,21.72-2.83,41.12-11.29,58.68-24.21,4.45-2.38,8.05-5.87,11.73-9.24,6.23-4.44,10.92-10.5,16.48-15.64,1.63-1.5,3-3.3,5-4.38A2.53,2.53,0,0,1,3602.56,1762.51Z" transform="translate(-1219.06 -1582.48)"/><path class="cls-4" d="M1475.42,1804.12a147.14,147.14,0,0,0,37.54,4.75q599.09-.11,1198.19-.16,385.71,0,771.43.21a182.2,182.2,0,0,0,23.93-1.51c2.15-.76,4.34-.5,6.53-.25a1.32,1.32,0,0,1,.28,1.71c-2.47,1.79-5.53,1.17-8.23,2.06-3.87.68-7.89-.12-11.69,1.25-14.92,1-29.85.1-44.77.28-6.84-.24-13.7.42-20.53-.44-3.83-1.18-7.77-.66-11.65-.66q-786.07,0-1572.15,0-148.27,0-296.55,0c-3.14,0-6.32-.38-9.39.65a192.62,192.62,0,0,1-27.6.17c-6.69-1.9-13.75.07-20.44-1.9a20.13,20.13,0,0,1-4.7-.55c-2.95-.86-5.95-1.46-8.94-2.15-2-.46-4.46-.57-4.77-3.46A3.25,3.25,0,0,1,1475.42,1804.12Z" transform="translate(-1219.06 -1582.48)"/><path class="cls-5" d="M1360.26,1727.12l-2.19-.07q-15.67-14.49-30.2-30.12a14.35,14.35,0,0,1-4.42-4.49h0c-11.43-10.14-21.69-21.46-32.64-32.08-1.7-2-3.93-3.46-5.26-5.76-1.24-2.56-3.56-4.19-5.32-6.3-1.24-1.49-3.39-3.26-1.19-5.1,1.85-1.55,4.39-3.06,7-.86,1.67,1.43,3,3.2,5,4.3,11.27,9.94,22.49,19.93,32.4,31.27-4.46,1.46-5.8-2.89-8.57-4.58a123.85,123.85,0,0,0-12.48-12.51c-1.83-2.4-4.5-3.85-6.66-5.87-1-1-2.42-2.36-3.78-.78-1.07,1.26.29,2.38,1.15,3.29,2,2.15,4.19,4.2,6.3,6.29,3.67,3.83,7.46,7.54,11.24,11.27s7.42,7.47,11.17,11.17,7.37,7.42,11.08,11.11c1.87,2,3.79,3.87,5.74,5.75q4.42,4.51,9,8.92c4.24,4.69,9.31,8.59,13.06,13.76A1.35,1.35,0,0,1,1360.26,1727.12Z" transform="translate(-1219.06 -1582.48)"/><path class="cls-6" d="M3725.54,1642.18q-23,22.69-45.94,45.36c-2.5,2.47-5.15,4.77-7.73,7.15-1,.29-1.38-.32-1.61-1.14a4.35,4.35,0,0,1,1.15-2.83c4.36-4.57,8.93-8.93,13.31-13.47,3.75-3.42,6.94-7.43,11.07-10.45,4.66-3.51,8.36-8,12.35-12.19,4-3.57,8-7.08,11.06-11.53.72-1.06,1.49-2.39.29-3.49-1-.92-2,0-2.95.59-1.35.88-2.61,2.27-4.41.87a96.57,96.57,0,0,1,13.44-13.38,22,22,0,0,0,4.94-4.38c2-2.24,4-2.35,6.12-.25,2.32,2.25,2.24,4.22-.09,6.56-2.83,2.85-6.16,5.28-8.21,8.86C3727.54,1639.81,3726.34,1640.85,3725.54,1642.18Z" transform="translate(-1219.06 -1582.48)"/><path class="cls-7" d="M1286.57,1654.47l4.48,5.59c-.37.48-.75.49-1.13,0-9.66-9.48-19.28-19-29-28.42-7.05-6.83-14.26-13.5-21.34-20.29-1.44-1.37-3.28-2.56-3.3-4.92a36.2,36.2,0,0,1-7.81-7.82h0c-1.72-2.85-.46-5,1.83-6.63,3.55-2.6,5.71.55,8.22,2.16,3.63,3.82,8.26,6.63,11.17,11.18-2.09,1.57-3.32-.33-4.76-1.23-1.2-.74-2.34-1.14-3.45,0-1.27,1.31-1,2.67.08,3.92,1.64,2,3.57,3.66,5.37,5.48,3.68,3.83,7.47,7.54,11.25,11.26,4.41,4.54,8.92,9,13.42,13.42C1276.75,1643.48,1281.66,1649,1286.57,1654.47Z" transform="translate(-1219.06 -1582.48)"/><path class="cls-8" d="M3739,1614.27c6-7.88,14.45-13.09,21.22-20.11,3-1.5,4.33.69,5.69,2.57,1.79,2.47.1,4.41-1.22,6.36l-14.52,13.41c-2.37-3-4.57-6.57-8.72-2A1.69,1.69,0,0,1,3739,1614.27Z" transform="translate(-1219.06 -1582.48)"/><path class="cls-9" d="M3739,1614.27a9.23,9.23,0,0,0,2.51-1c6-4.6,6.52-4.4,8.66,3.2v1.11a13.24,13.24,0,0,0-4.49,4.47,145.49,145.49,0,0,0-16.74,16.75c-.37.44-.74.46-1.12,0,1-4.31,4.94-6.16,7.56-9.11,1.77-2,3.06-3.38.5-5.84-2.34-2.25-3.71-1.23-5.42.55-1.36,1.42-2.53,3.24-4.87,3.24C3729.11,1622.27,3734.79,1619,3739,1614.27Z" transform="translate(-1219.06 -1582.48)"/><path class="cls-3" d="M3764.67,1603.09c1.81-4.62.51-7.69-4.47-8.93,3.07-4.36,6.25-8.38,11.25-11,3.4-1.81,4.2.56,5.87,1.92s1.86,2.66.34,4.62A76.07,76.07,0,0,1,3764.67,1603.09Z" transform="translate(-1219.06 -1582.48)"/><path class="cls-10" d="M1315.61,1672.36c2.8,1.6,4.29,5,7.85,5.56a177.5,177.5,0,0,1,16.88,16.71,2.53,2.53,0,0,1-1.35.84,3.42,3.42,0,0,1-2.93-1.06,22.43,22.43,0,0,0-7.34-6.53c-2.24-1.1-5.21,1-7.56-1a72.45,72.45,0,0,1-11.16-11.19c-.84-1.19.18-2.77.69-2.31C1313.11,1675.65,1313.89,1672.05,1315.61,1672.36Z" transform="translate(-1219.06 -1582.48)"/><path class="cls-11" d="M3685.4,1678a111.83,111.83,0,0,1-13.4,13.43c-3.85-3-6.8-1.76-9.63,1.7-1.16,1.4-2.74,3.21-5.08,1.53a73.67,73.67,0,0,1,11.26-11.14,8.64,8.64,0,0,0,3.89-4.12,20.08,20.08,0,0,1,4.94-4.66C3681.52,1672.21,3684.26,1673.13,3685.4,1678Z" transform="translate(-1219.06 -1582.48)"/><path class="cls-10" d="M3627.28,1723.75c6.95-8.31,15.17-15.31,23.28-22.42a12.37,12.37,0,0,0,2.66-1.86c4.85-4.45,4.86-4.44,10.32-.31a29.46,29.46,0,0,1-12.61,12.7c-3.24-3.14-6.06-2-8.87.74-1.71,1.64-3.4,3.31-5.09,5-2.79,2.2-4.58,5.66-8.28,6.75A2.27,2.27,0,0,1,3627.28,1723.75Z" transform="translate(-1219.06 -1582.48)"/><path class="cls-12" d="M1270.92,1638.85a96.56,96.56,0,0,1-13.42-13.4c2.12-5.54,5-6.46,8.9-2.82a29.09,29.09,0,0,0,4.51,3.93,64.58,64.58,0,0,1,11.19,11.16c-2.14,1.46-3.42-.25-4.83-1.34C1272.48,1632.7,1271.79,1633,1270.92,1638.85Z" transform="translate(-1219.06 -1582.48)"/><path class="cls-13" d="M1346.85,1712.65a50,50,0,0,1-8.93-8.94c-1.16-2-.07-2.72,1.7-2.83a14.94,14.94,0,0,0,3.63-1.16c1.16-.16,1.89.58,2.64,1.27,1.79,1.72,3.32,3.77,5.71,4.78a359.31,359.31,0,0,1,31.11,30.22,2.17,2.17,0,0,1-1.37.64,4.88,4.88,0,0,1-2.77-1.28c-3.64-3.81-7.68-7.2-11.47-10.86-1.67-2.88-4.9-4.21-6.83-6.84-1.38-2-3.63-3.21-5.21-5C1352.14,1709.41,1349.6,1709.7,1346.85,1712.65Z" transform="translate(-1219.06 -1582.48)"/><path class="cls-14" d="M3712.13,1641.05c1.9.09,3-1.28,4.15-2.41s2.3-2.6,4.17-1,2,3.13.56,5.26a62.27,62.27,0,0,1-12.21,12.64,25,25,0,0,1-4.8-5.62c1.18-3.65,4.43-5.43,7-7.81Z" transform="translate(-1219.06 -1582.48)"/><path class="cls-15" d="M3704.33,1650c2.8.81,3.82,3,4.47,5.59-3.79,4.39-7.59,8.78-12.29,12.27-2-5.21-5.94-1.48-9-2-.8-2.16,1.31-2.51,2.23-3.6a12.76,12.76,0,0,1,4.49-4.45,23,23,0,0,0,4.25-3.56,12.86,12.86,0,0,0,4-3.74C3703,1650,3703.55,1649.51,3704.33,1650Z" transform="translate(-1219.06 -1582.48)"/><path class="cls-16" d="M1270.92,1638.85c-1.74-2.6-.94-4.94,1.31-6.49s3.46,1,4.92,2.13,2.58,3.24,4.95,3.23a43.1,43.1,0,0,1,9,8.93,3.45,3.45,0,0,1-2.93-1.28c-2.76-3.83-5.81-3.26-9.13-.8,1.77,4,6.75,5.34,7.57,9.9A126.87,126.87,0,0,1,1270.92,1638.85Z" transform="translate(-1219.06 -1582.48)"/><path class="cls-3" d="M1238.52,1594.16c-7.42-3.06-8.84-2.43-10,4.47a34.49,34.49,0,0,1-7.78-7.71c-1.65-2.18-2.64-3.89,0-6.52s4.72-2.29,6.91-.13C1231.1,1587.72,1235.71,1590,1238.52,1594.16Z" transform="translate(-1219.06 -1582.48)"/><path class="cls-17" d="M1270.91,1626.56a3.91,3.91,0,0,1-3.28-1.67c-3.7-5.08-7-3.54-10.13.56a66.38,66.38,0,0,1-11.17-11.18c2.28-5.21,4.83-5.9,8.85-2.5,3.09,2.61,5.69,5.76,9,8.08A23.79,23.79,0,0,1,1270.91,1626.56Z" transform="translate(-1219.06 -1582.48)"/><path class="cls-6" d="M1264.21,1619.85c-4-.58-6.41-4-8.65-6.48-4.21-4.66-6.41-1.67-9.23.9-1.9-1.72-3.79-3.45-5.71-5.16-2.11-1.87-2.69-3.64-.47-6.06s3.91-2.12,5.82.2a4.7,4.7,0,0,0,3.72,2.08C1254,1610.74,1260.45,1613.94,1264.21,1619.85Z" transform="translate(-1219.06 -1582.48)"/><path class="cls-10" d="M3602.56,1762.51l-2,.49a2,2,0,0,1-.81-1.27,3.63,3.63,0,0,1,.28-1.52,45.75,45.75,0,0,1,8.68-8.57c3.67-3.22,6.26-7.45,10-10.63,3-2.72,5.56-5.94,8.92-8.28,3.61-1.79,5-6.62,9.7-7a2.46,2.46,0,0,1,.6,1.41,19.91,19.91,0,0,1-7.58,7.63Z" transform="translate(-1219.06 -1582.48)"/><path class="cls-18" d="M3570.1,1780.19l.82-.81c3.11-1.83,4.29-6.06,8.36-6.7,1.68,2.24.38,3.92-1.05,5.58,1.27-1,2.5-2.09,4.28-1.15,1,2.79-1.43,3.64-2.9,5-3.32,2.88-6.19,6.33-10.35,8.15-2.88-.22-6.72,3.83-8.41-1.85C3562.73,1784.32,3567.25,1783.2,3570.1,1780.19Z" transform="translate(-1219.06 -1582.48)"/><path class="cls-15" d="M3637.45,1727.2l-.2-1.25c-.61-1.85.81-2.82,1.72-4,4.05-3.34,6.73-8.25,11.85-10.38a99.09,99.09,0,0,0,12.24-12.34c1.76-3,2.92-6.84,7.75-5.67l1.06,1.14c-11.16,10.38-22,21-32.37,32.26A1.31,1.31,0,0,1,3637.45,1727.2Z" transform="translate(-1219.06 -1582.48)"/><path class="cls-19" d="M1395.29,1749.27a3.11,3.11,0,0,1,2,2c1.18,1.79,3.3,2.75,4.22,4.77,1.77,3.1,3.62,6.23-2,7.34-5-2.79-8.63-7-11.91-11.54,2.51-2-1.25-5.5,1.72-7.42C1392.22,1745,1393.13,1747.87,1395.29,1749.27Z" transform="translate(-1219.06 -1582.48)"/><path class="cls-20" d="M3670.81,1693.55c-3.69.39-4.79,4.3-7.76,5.67-.29-2.37-5.26,3.41-4-2.35.29-1.29-1.61-.29-2.39.29-2,1.46-3.07,4.25-6.11,4.17a30.08,30.08,0,0,1,6.73-6.69c5.12-.87,6.59-6.87,11.88-7.93-.85,2.44,1.42,3.28,2.83,4.7Z" transform="translate(-1219.06 -1582.48)"/><path class="cls-3" d="M1289.92,1660.08l1.13,0q16.83,15.57,32.41,32.39c-.85-.31-1.93-.37-2.51-1Q1305.38,1675.86,1289.92,1660.08Z" transform="translate(-1219.06 -1582.48)"/><path class="cls-21" d="M1475.42,1804.12l-3.33,0a1.5,1.5,0,0,1-1.29.6c-2-.37-3.83-1.11-5.74-1.65a13.35,13.35,0,0,1-1.38-.5c-1.56-.65-3.21-1.09-4.75-1.81-.46-.2-.89-.42-1.33-.66-2.62-1.43-5.33-2.67-8-4a24.57,24.57,0,0,0-4.67-2,32.89,32.89,0,0,1-5.32-2.55,6.47,6.47,0,0,1-1.93-2.26,3.13,3.13,0,0,1-.35-2.86c4.7,1.38,8.39,4.62,12.59,6.92C1458.08,1797.75,1467,1800.37,1475.42,1804.12Z" transform="translate(-1219.06 -1582.48)"/><path class="cls-19" d="M1405.24,1758.23c7.8,6.72,15.21,13.85,22.38,21.24a2.59,2.59,0,0,1-1.35.92c-2.6.34-4-1.33-5.42-3.13-4.57-4.77-9.78-8.88-14.27-13.76-1.24-1.61-3.41-2.73-2.81-5.31A1.26,1.26,0,0,1,1405.24,1758.23Z" transform="translate(-1219.06 -1582.48)"/><path class="cls-22" d="M3579.21,1772.9c-3.25,1.54-4.54,5.59-8.29,6.48,2.66-5.07,7.53-8.07,11.38-12,4.26-4.37,9-8.32,13.48-12.45a1.13,1.13,0,0,1,1.41-.09c.66,2.57-1.54,3.62-2.74,5.2-2,1.87-3.86,3.87-5.86,5.75C3585.06,1767.62,3583,1771.41,3579.21,1772.9Z" transform="translate(-1219.06 -1582.48)"/><path class="cls-23" d="M3570.1,1780.19c-2.13,3.62-6.27,5.11-8.79,8.31-2.31,3.47-6.45,4.24-9.57,6.51a5.4,5.4,0,0,1-3.86,1,2.52,2.52,0,0,1-1.32-.92Z" transform="translate(-1219.06 -1582.48)"/><path class="cls-6" d="M3689.78,1662.26l-2.19,3.39c-1.68,5-6.61,6.81-10.11,10a12.92,12.92,0,0,0-4.49,4.39,1.35,1.35,0,0,1-2.13.16C3676.75,1673.8,3682.12,1666.82,3689.78,1662.26Z" transform="translate(-1219.06 -1582.48)"/><path class="cls-24" d="M3516.69,1805.34c6.25-.27,11.52-4.25,17.72-4.73a1.45,1.45,0,0,1,.18,1.68c-5.25,4-11.07,5.73-17.65,4.62A1.06,1.06,0,0,1,3516.69,1805.34Z" transform="translate(-1219.06 -1582.48)"/><path class="cls-25" d="M1395.29,1749.27c-2.74-.39-3.57-3.41-5.93-4.32-3.52-2.12-7.11-4.18-7.83-8.78l1.18-.18C1387.12,1740.22,1392.39,1743.62,1395.29,1749.27Z" transform="translate(-1219.06 -1582.48)"/><path class="cls-26" d="M3627.28,1723.75c.37,0,.73,0,1.1,0,.22,3.68-3.25,4.83-4.91,7.22-1.93,1.61-3.31,4-6,4.48a2.17,2.17,0,0,1-1.37-.6A66.87,66.87,0,0,1,3627.28,1723.75Z" transform="translate(-1219.06 -1582.48)"/><path class="cls-27" d="M1426.19,1779.69l1.43-.22,9.7,6.9,1.09,2.17C1433.48,1788.56,1428,1784.57,1426.19,1779.69Z" transform="translate(-1219.06 -1582.48)"/><path class="cls-18" d="M3534.45,1801.86c0-.42,0-.83,0-1.25l12.15-5.5,1.43.27c0,3.24-2.85,3.33-4.82,4.27s-4.22,2-6.41,2.89A2.39,2.39,0,0,1,3534.45,1801.86Z" transform="translate(-1219.06 -1582.48)"/><path class="cls-6" d="M3704.33,1650l-1.12,1.11a1.48,1.48,0,0,1-2.23,0c3-3.36,5.42-7.41,10-9Z" transform="translate(-1219.06 -1582.48)"/><path class="cls-3" d="M3637.45,1727.2l2.05-.25c-2.54,3.22-4.59,7-9.15,7.86Z" transform="translate(-1219.06 -1582.48)"/><path class="cls-28" d="M3601.39,1749.37a35.1,35.1,0,0,1,7.94-7.78.86.86,0,0,1,1.32-.09,3.05,3.05,0,0,1-.77,2.93c-2.22,2.06-3.81,5-7.15,5.63A2.18,2.18,0,0,1,3601.39,1749.37Z" transform="translate(-1219.06 -1582.48)"/><path class="cls-3" d="M1228.47,1598.63a32.23,32.23,0,0,1,7.81,7.82A11.78,11.78,0,0,1,1228.47,1598.63Z" transform="translate(-1219.06 -1582.48)"/><path class="cls-20" d="M3516.68,1805.34l0,1.13c-.8,1.48-1.83,2.19-3.43,1l-6.77-.09C3509.82,1806.32,3513.12,1805.18,3516.68,1805.34Z" transform="translate(-1219.06 -1582.48)"/><path class="cls-29" d="M1345.78,1701.43l-2.23-1.16c-2.31-1.18-4.83-2.2-4.49-5.53l1.28-.11a29.55,29.55,0,0,1,6.75,6.69A.79.79,0,0,1,1345.78,1701.43Z" transform="translate(-1219.06 -1582.48)"/><path class="cls-30" d="M3610.49,1741.67l-1.16-.08a23,23,0,0,1,6.73-6.69l1.17.06c.5,1.12-.1,2-.69,2.81C3614.67,1739.3,3613.64,1742.13,3610.49,1741.67Z" transform="translate(-1219.06 -1582.48)"/><path class="cls-22" d="M1405.24,1758.23l-1.37.23c-2.09.57-2.35-1.41-3.33-2.39-.65-1.88-3.09-2.57-3.21-4.8C1400.94,1752.48,1403.12,1755.32,1405.24,1758.23Z" transform="translate(-1219.06 -1582.48)"/><path class="cls-31" d="M3601.39,1749.37l1.32.1c.32,3.17-2.23,4.3-4.18,5.86a1.58,1.58,0,0,1-1.44-.23l-1.31-.18A17.49,17.49,0,0,1,3601.39,1749.37Z" transform="translate(-1219.06 -1582.48)"/><path class="cls-32" d="M1345.78,1701.43l1.31-.11a14.84,14.84,0,0,1,4.51,4.45C1348.56,1705.79,1347.26,1703.49,1345.78,1701.43Z" transform="translate(-1219.06 -1582.48)"/><path class="cls-14" d="M3701,1651.12h2.23c-.95,1.82-2.19,3.26-4.43,3.39-.36-.25-.49-.5-.38-.76s.23-.39.34-.39Z" transform="translate(-1219.06 -1582.48)"/><path class="cls-3" d="M3745.66,1622.08a4.72,4.72,0,0,1,4.49-4.47A11.23,11.23,0,0,1,3745.66,1622.08Z" transform="translate(-1219.06 -1582.48)"/><path class="cls-6" d="M3698.74,1653.35c0,.38,0,.76,0,1.15-1.05,1.73-2.22,3.27-4.51,3.31A11.89,11.89,0,0,1,3698.74,1653.35Z" transform="translate(-1219.06 -1582.48)"/><path class="cls-3" d="M1323.45,1692.44a11,11,0,0,1,4.42,4.49A4.63,4.63,0,0,1,1323.45,1692.44Z" transform="translate(-1219.06 -1582.48)"/><path class="cls-33" d="M3670.86,1680.22l2.13-.16c-.85,2-2.13,3.35-4.44,3.44Z" transform="translate(-1219.06 -1582.48)"/><path class="cls-3" d="M3727.8,1638.83h1.12a6.77,6.77,0,0,1-3.38,3.35A3.52,3.52,0,0,1,3727.8,1638.83Z" transform="translate(-1219.06 -1582.48)"/><path class="cls-27" d="M3440.67,1818.75c-15.63.1-31.26.3-46.89.3q-939.15,0-1878.28.07c-33.84,0-64.14-9-90.74-30-1.89-1.49-3.57-3.24-5.35-4.86a1.13,1.13,0,0,1,0-1.43c3.19-.39,4.94,2.12,7,3.74q4.55,3.6,9.4,6.72a101.12,101.12,0,0,0,20.08,11.16,130.13,130.13,0,0,0,18.17,6.6,266.15,266.15,0,0,0,30.35,5c16.07-.28,32.12,0,48.18,0q41.88.06,83.75,0,655.44-.75,1310.88-.24,176.49,0,353,0c24.76,0,49.52.16,74.28.19,19.31.15,38.63-.54,57.94,0,2.58.07,5.22-.37,7.67.88A1.35,1.35,0,0,1,3440.67,1818.75Z" transform="translate(-1219.06 -1582.48)"/><path class="cls-23" d="M3568.15,1792.18c-17.17,13.39-36.42,21.87-58.14,24.48a1.31,1.31,0,0,1-.07-1.61c4-2.42,8.8-2.45,13.1-4a104.4,104.4,0,0,0,18.54-6.69c4.59-2.09,9-4.5,13.44-6.91,4.6-1.87,8-6.18,13.24-6.71A1.22,1.22,0,0,1,3568.15,1792.18Z" transform="translate(-1219.06 -1582.48)"/><path class="cls-34" d="M1361.37,1717.08c1.73,2.74,5.53,3.41,6.71,6.7-2.43,7.15,4,9.63,7.27,13.81a4.57,4.57,0,0,1,1.24,2.88,2.17,2.17,0,0,1-.74,1.37l-15.59-14.72.06-1.18c-.54-.72-1.08-1.45-1.63-2.16-1.07-1.37-3.55-2.39-2.78-4.25S1358.94,1716.56,1361.37,1717.08Z" transform="translate(-1219.06 -1582.48)"/><path class="cls-25" d="M1375.85,1741.84l.16-1.37c6,1.63,9,6.57,12.21,11.2a69.89,69.89,0,0,0,11.18,11.17c3.33,1,4.93,4.16,7.47,6.16,2.84,2.92,5.75,5.77,8.63,8.65,1.39,1.72,3.49,2.92,4,5.28,0,.44-.09.87-.14,1.31-2-.35-3.08-2-4.36-3.24Q1395.42,1761.46,1375.85,1741.84Z" transform="translate(-1219.06 -1582.48)"/><path class="cls-18" d="M3510,1815.45c0,.4,0,.81,0,1.21a21.71,21.71,0,0,1-8.66,1.79c-20.22.83-40.45.77-60.68.3,0-.36,0-.72,0-1.07,4.93-3.3,10.47-1,15.68-1.7,12.36.11,24.73-.38,37.09,0,3.5.38,6.81-.92,10.25-1.13C3505.8,1814.73,3508,1813.79,3510,1815.45Z" transform="translate(-1219.06 -1582.48)"/><path class="cls-31" d="M3579.08,1781.79l3.5-4.44c1.34-3.69,4.82-5.56,7.14-8.42,2-1.89,3.9-3.86,5.83-5.82,1.42-1,2.61-2.82,4.75-1.45.1.44.19.89.28,1.34-7,6.83-13.2,14.47-21.24,20.18A.85.85,0,0,1,3579.08,1781.79Z" transform="translate(-1219.06 -1582.48)"/><path class="cls-35" d="M3579.08,1781.79c.08.46.17.92.26,1.39-3.25,3.6-6.75,6.88-11.19,9l-.18-1.5c-.18-.91.08-1.38,1.09-1.12Z" transform="translate(-1219.06 -1582.48)"/><path class="cls-36" d="M1537.72,1810.73c1.92-1.07,4-.62,6-.62q939.38,0,1878.76,0c2,0,4.11-.51,6,.66-3.17,2.67-7,1.8-10.63,1.86-17.74.3-35.49-.35-53.24-.17q-661.32.81-1322.65.24-144.66,0-289.33-.07c-36.11-.08-72.22-.07-108.32-.17-16.06,0-32.13,0-48.19,0-18.52-.15-37.05.23-55.58-.19A4.11,4.11,0,0,1,1537.72,1810.73Z" transform="translate(-1219.06 -1582.48)"/><path class="cls-37" d="M3364.66,1811l63.85-.26,20,.06c4.68,1.57,9.72-.24,14.43,1.7-5.28,2.76-11,1.39-16.47,1.63-5.71.24-11.43.06-15.07,0,11.44.15,25-.17,38.48,0,.9,0,1.59.76,2.55,2-5.65,1.71-11-.11-16.1,1.22l-15.62.23-65.92-.22c-.05-1.27.8-1.51,1.79-1.51,4.86,0,9.73-.1,13.49,0-9.21-.66-19.49.7-29.78.55-13.38-.19-26.77,0-40.15,0-1.3,0-2.61.07-3.9,0-1.75-.16-4.26.34-4.2-2.34,0-2.21,2.3-1.92,3.92-2.06.56,0,1.12,0,1.67,0,22.74-.06,45.47-.09,68.2.71.74-.18-.31-1.3.09-.67.11.18,0,.3-.45.33-6.12.36-12.23.09-18.35.14C3366,1812.51,3364.76,1812.69,3364.66,1811Z" transform="translate(-1219.06 -1582.48)"/><path class="cls-36" d="M3456.3,1817.45c4.59-2.45,9.74.12,14.42-2.44h-47.15v-1.63h38.3c-4.3-2.65-9.2.21-13.38-2.55l45.74,0c1-.69,2.14-.46,3.24-.36,1.2.62,3.47.17,3.33,2.13s-2.08,1.68-3.55,1.67-3.16-.06-4.58,0c1.7.26,4-.74,5.07,1.77-.75,1.57-2.44.57-3.43,1.37Z" transform="translate(-1219.06 -1582.48)"/><path class="cls-38" d="M1537.72,1810.73l2.5.27c-2.92,3.32-6.82.51-10.14,1.78,12.17-.94,24.31-.88,36.45-.73,2.23,0,5.7-1,5.1,3.46-5.78,1.89-11.74,1.06-17.56.72s-11.8-.18-16.2-.28c3.27-.17,8,0,12.81,0,1,0,1.82.25,1.81,1.5l-49.2-.07c-1-.76-2.71.22-3.42-1.66,3.1-2.92,7-.73,10-1.53-3.17.18-6.81-.12-10.45.17-1.45.12-3.46.05-3.62-1.66-.2-2.06,2-1.56,3.32-2,.53-.16,1.07-.28,1.62-.39,3.15.18,6.33-.48,9.43.44Z" transform="translate(-1219.06 -1582.48)"/><path class="cls-39" d="M1500,1811c-.78,1.16-2.26.88-3.3,2.28H1516l0,1.52c-4.79,1.29-9.82.09-14.77.74-.21,1.51,1.82.8,2.06,1.88-10.15-1.24-20.36-2.13-30.14-5.38,3.28-4.27,7.7-4.42,12.43-3.44l4.36.24C1493,1810.77,1496.76,1809.77,1500,1811Z" transform="translate(-1219.06 -1582.48)"/><path class="cls-40" d="M3494.3,1817.38l2.57-1.69c-3.33-1-6.73.45-10.55-1.38,4.86-2.17,9.26-.61,13.45-1.39,0-1.44-1.89-.88-2.19-2,2.39-1.68,5.48.56,7.82-1.42,2.43-1.6,5.17-.68,7.76-1,4.26-1.31,7.79-.46,10.26,3.5a46.71,46.71,0,0,1-13.45,3.38Z" transform="translate(-1219.06 -1582.48)"/><path class="cls-41" d="M1485.58,1808.55c-4.48-.09-8.27,2.37-12.43,3.44-6.22-1.58-12.39-3.28-17.94-6.65.31-2.45-3-7.14,3.53-5.75l0-.06c1.37,2,3.73,1.58,5.62,2.31l0,0c1.88,2,4.61,1.43,6.86,2.29a1.69,1.69,0,0,1,1,0C1476,1807.3,1481.41,1806.07,1485.58,1808.55Z" transform="translate(-1219.06 -1582.48)"/><path class="cls-42" d="M3523.42,1812.07c-3.39-1.25-6.47-3.41-10.26-3.5a4.81,4.81,0,0,0,.12-1.07l3.43-1c6.24-.29,12-2.3,17.74-4.6l2.29.05c2.46.09,4.78.39,5.54,3.32A59.09,59.09,0,0,1,3523.42,1812.07Z" transform="translate(-1219.06 -1582.48)"/><path class="cls-41" d="M1500,1811c-3.43-.38-7.21.86-10.08-2.16,6.62,1.83,13.56.34,20.19,2Z" transform="translate(-1219.06 -1582.48)"/><path class="cls-42" d="M3505.4,1809.52c-2.23,2.58-5.24.78-7.82,1.42l-3.36-.14C3497.79,1809.05,3501.71,1810.28,3505.4,1809.52Z" transform="translate(-1219.06 -1582.48)"/><path class="cls-43" d="M1315.61,1672.36c-1.1,1.57-1.89,3.59-4.52,1.92-.74-.47-1,.74-1.09,1.45a68.22,68.22,0,0,1-11.15-11.19,4.84,4.84,0,0,1,4.44-4.43C1307.74,1663.85,1312.1,1667.68,1315.61,1672.36Z" transform="translate(-1219.06 -1582.48)"/><path class="cls-44" d="M1361.37,1717.08c-1.66.66-2.61,2.58-4.81,2.25.49,3,3.93,3.75,3.76,6.61a105.7,105.7,0,0,1-13.47-13.29c3.19-5.76,3.18-5.75,8.14-1.52C1357.21,1713,1360.1,1714.18,1361.37,1717.08Z" transform="translate(-1219.06 -1582.48)"/><path class="cls-29" d="M1321.16,1686.92c7.28-2.62,11.83,1.2,15.67,6.67-1,1.86,3,3.2.56,5.17-1.87,1.52-3.26-1.27-5.05-.64A77.36,77.36,0,0,1,1321.16,1686.92Z" transform="translate(-1219.06 -1582.48)"/><path class="cls-45" d="M1303.29,1660.11a10.16,10.16,0,0,1-4.44,4.43c-2.7-2.52-5.36-5.07-8.1-7.53-1.56-1.4-1.76-2.85-.24-4.23,1.24-1.11,2.93-2.29,4.33-.5C1297.26,1655.36,1301.34,1656.58,1303.29,1660.11Z" transform="translate(-1219.06 -1582.48)"/><path class="cls-32" d="M1332.34,1698.12c1.58-4.36,3.1,1.41,4.74,0,1.34-1.51-2.8-2.87-.25-4.49a2.43,2.43,0,0,0,2.23,1.15l4.49,5.53c-1.32.66-1.13,4.57-4.16,1.77-.78-.71-1.29.78-1.47,1.67A20.07,20.07,0,0,1,1332.34,1698.12Z" transform="translate(-1219.06 -1582.48)"/><path class="cls-33" d="M3677.48,1675.67c2.83-3.88,6.49-6.93,10.11-10a6.62,6.62,0,0,0,2-.61c5.22-3.7,5.21-3.72,6.87,2.82L3685.4,1678C3683.29,1675.39,3680.91,1673.74,3677.48,1675.67Z" transform="translate(-1219.06 -1582.48)"/><path class="cls-30" d="M3622.77,1730.42l5.61-6.62,7.81-6.77c2.26,1.23,3,3.41,3.46,5.72l-2.4,3.2-8.94,7.79C3626,1733.36,3623.44,1733.49,3622.77,1730.42Z" transform="translate(-1219.06 -1582.48)"/><path class="cls-26" d="M3639.65,1722.75c-2.25-1.24-2.81-3.51-3.46-5.72,1.9-2.77,4.65-4.69,7-7,3.74-3.66,5.76-2.31,7.63,1.53Z" transform="translate(-1219.06 -1582.48)"/><path class="cls-46" d="M1388.22,1751.67l-12.21-11.2-1.2-2.2a7.86,7.86,0,0,1,4.55-3.44l2.17,1.34,7.83,8.78a1.15,1.15,0,0,0-.07,1.88C1392.05,1749.17,1390.4,1750.46,1388.22,1751.67Z" transform="translate(-1219.06 -1582.48)"/><path class="cls-25" d="M1379.36,1734.83c-1.07,4.06-1.07,4.06-4.55,3.44a64.42,64.42,0,0,0-5.73-5.13c-4-2.84-4-5.88-1-9.36C1371.84,1727.47,1376.31,1730.43,1379.36,1734.83Z" transform="translate(-1219.06 -1582.48)"/><path class="cls-22" d="M3598.19,1755l4.52-5.53,6.66-5.62a2.47,2.47,0,0,1,.52-.13c1.16,2.54.87,6.92-.56,8.93l-8.83,8C3595.3,1760.58,3596.25,1758,3598.19,1755Z" transform="translate(-1219.06 -1582.48)"/><path class="cls-31" d="M3609.33,1752.65c.49-1.28,1-2.55,1.67-4.32l-3.72,1.74c-1.42-3,4.35-3.16,2.09-6.22l1.12-2.18,5.57-4.54c2.86.2,1.46,3.64,3.44,4.5Z" transform="translate(-1219.06 -1582.48)"/><path class="cls-28" d="M3619.5,1741.63c-2.94-.78-2.94-.78-3.44-4.5l1.17-2.17,5.54-4.54,5.54,3.32Z" transform="translate(-1219.06 -1582.48)"/><path class="cls-46" d="M3598.19,1755c.75,1.9-1.28,4.93,2.31,5.68-.05.33-.11.66-.19,1-1.88-.05-2.82,1.67-4.35,2.29-.6.44.22,0-.45.29-1.7.65-3,4-5,1.83s1-3.33,2.07-4.8c.43-.58,1.1-1,1.15-1.79l3.36-4.38A8,8,0,0,1,3598.19,1755Z" transform="translate(-1219.06 -1582.48)"/><path class="cls-47" d="M3569.06,1789.56l-1.09,1.12c-4.09,2.63-7.79,5.86-12.31,7.81-2.5-.42-6.48.64-4.39-4.38a45.17,45.17,0,0,1,10-5.61c1.51,1.5,2.87,3.41,5.05.65C3567.12,1788.19,3568.29,1788.54,3569.06,1789.56Z" transform="translate(-1219.06 -1582.48)"/><path class="cls-23" d="M3590.39,1769.54a34.25,34.25,0,0,1-7.81,7.81c-3,.13-4.39,3-7.55,4.19.46-3.67,5.12-5,4.18-8.64a21.74,21.74,0,0,1,8.93-7.85C3590.61,1765.69,3587.91,1768.91,3590.39,1769.54Z" transform="translate(-1219.06 -1582.48)"/><path class="cls-48" d="M1406.11,1769.54a25.45,25.45,0,0,1-6.71-6.7c4.68-1.53,1.62-4.37,1.14-6.77l3.33,2.39,3.36,4.38C1411,1768,1411,1768,1406.11,1769.54Z" transform="translate(-1219.06 -1582.48)"/><path class="cls-49" d="M1419.55,1782.93a12,12,0,0,1-4.49-4.47c-.88-3.34,1.5-3,2.7-1.77,1.87,2,2.67,0,3.93-.36,1,1.73,2.32,3.15,4.5,3.36a34.05,34.05,0,0,0,12.22,8.85l1.54,2a4.22,4.22,0,0,1-1,2.5,3.81,3.81,0,0,1-1.13.78,9,9,0,0,1-2.73.31C1429.23,1791.39,1424.88,1786.49,1419.55,1782.93Z" transform="translate(-1219.06 -1582.48)"/><path class="cls-50" d="M1438.51,1793a2.57,2.57,0,0,1,1.44-2.47l5.25,2.35c1.21,1.41,3,1.61,4.6,2.3l8.94,4.41c-.93.62-4.23-.77-2.25,2.31,1.36,2.11-.94,2.28-1.28,3.44a69.18,69.18,0,0,1-20.07-11.22c.81-1.32,2.14-1.09,3.38-1.13Z" transform="translate(-1219.06 -1582.48)"/><path class="cls-50" d="M1471.12,1804.08c-2.5-.12-5.45,1.1-6.86-2.29Z" transform="translate(-1219.06 -1582.48)"/><path class="cls-50" d="M1464.31,1801.84c-2.23.1-4.61.57-5.62-2.3Z" transform="translate(-1219.06 -1582.48)"/><path class="cls-49" d="M1449.8,1795.18c-2,.21-3.76-.13-4.6-2.3A7.8,7.8,0,0,1,1449.8,1795.18Z" transform="translate(-1219.06 -1582.48)"/><path class="cls-27" d="M1421.69,1776.33c-2.4,1.85,1.69,2.94.33,4.9-2-.37-2.86-2.36-4.36-3.46-1-.74-2.31-1.68-2.6.69a43.74,43.74,0,0,1-9-8.92c3.12-1.78,2.36-4.2,1.12-6.7Z" transform="translate(-1219.06 -1582.48)"/><path class="cls-35" d="M3590.39,1769.54c-1.35-.17-2.58,1.23-3.9.53-.88-2.32,3.43-2.57,1.65-5a17.49,17.49,0,0,1,5.59-5.57c.84.19,2.2.06.61,1.4s-3.51,2.12-3.46,4.63c2.19.81,3.14-2,5.08-1.56A17.7,17.7,0,0,1,3590.39,1769.54Z" transform="translate(-1219.06 -1582.48)"/><path class="cls-51" d="M3551.27,1794.11c-.81,3.74,3.05,2.8,4.39,4.38a78.35,78.35,0,0,1-13.38,6.74c-1.59-1.54-4.41-1-5.54-3.32,2.69-4,8.45-2.72,11.25-6.53Z" transform="translate(-1219.06 -1582.48)"/><path class="cls-52" d="M3364.66,1811c5.39,2,11,.43,16.47,1,2.3.22,4.68-.54,6.91,1.42H3313V1815h82.89c-6.95,2.5-14.21,0-21.09,2.44q-107.79.11-215.57.22-756.45,0-1512.91-.07c-3.34,0-6.69-.09-10-.14-9.71-1.06-19.45-.15-29.16-.53-1.55-.06-3.85,1.21-4.47-1.65,3.56-2.59,7.65-1.12,11.5-1.52,12.16,1,24.35.21,36.52.45h.13c-9.07,0-18.13,0-27.2,0-2,0-4.08.4-6-.71-.52-3.57,2.3-1.89,3.5-2,7.64-.42,15.31.43,23-.51q115.05-.06,230.09-.13,740,0,1479.92.06C3357.59,1811,3361.13,1811,3364.66,1811Z" transform="translate(-1219.06 -1582.48)"/><path class="cls-53" d="M1602.76,1815.35c2.4,2.1,5.27.86,7.92,1.07,8.5.67,17.11-1.17,25.56,1.06l-83.75,0c-5.32-2.36-11,0-16.42-2.11h35.39a6,6,0,0,1,4.06-1.5c7.74-.12,15.48-.13,23.23,0A5,5,0,0,1,1602.76,1815.35Z" transform="translate(-1219.06 -1582.48)"/><path class="cls-54" d="M1602.76,1815.35l-31.3,0c-.54-3.1-3-2.17-4.85-2.18-11.83-.08-23.67-.05-35.5-.06a30.71,30.71,0,0,1-5.41-.32c4.72-1.91,9.89.64,14.52-1.77l55.81,0c0,.88-.41,1.44-1.24,1.43-6.41,0-12.83.44-16.41.1,4.19.23,11.18.1,18.2-.29,5.7-.33,11.42-.87,17.09.36a1.83,1.83,0,0,1,.25,2.7Z" transform="translate(-1219.06 -1582.48)"/><path class="cls-53" d="M1613.92,1813.11h-39c7-2.09,14.2.21,21.11-2.09h48c-6.71,2.17-13.61.35-20.4,1-2.14.2-4.51-.82-6.36,1.09A2.36,2.36,0,0,1,1613.92,1813.11Z" transform="translate(-1219.06 -1582.48)"/><path class="cls-51" d="M3535.48,1804.34c.72.2,1.63.45,1.46,1.32s-1.14.78-1.81.62c-.44-.11-1.1-.55-1.14-.89C3533.88,1804.36,3534.71,1804.33,3535.48,1804.34Z" transform="translate(-1219.06 -1582.48)"/><path class="cls-49" d="M1438.51,1793c1,.14,2.24-.34,2.75,1,.08.21-.5.94-.84,1-1.48.24-1.74-.86-1.9-2Z" transform="translate(-1219.06 -1582.48)"/><path class="cls-55" d="M1650.78,1813.11h90.84v2.21h-90.84A1.5,1.5,0,0,1,1650.78,1813.11Z" transform="translate(-1219.06 -1582.48)"/><path class="cls-56" d="M1650.78,1813.11v2.21h-36.86v-2.21l3.36,0Z" transform="translate(-1219.06 -1582.48)"/></g></svg>